:SAMPLES-PER-SECOND 30
:FULLY-SPECIFIED
:DEGREES
177
root  -22.7723 33.995 -3.23595 -165.943 -58.3494 173.584
RightUpLeg  -27.8218 1.39631 4.64909
RightLeg  14.7902 -3.13534 -0.614265
RightFoot  -2.71798 -0.00615398 0.118173
RightToes  -39.2728 -0.212701 -0.310978
Spine  5.64406 -5.73666 2.20597
Spine1  11.0391 -11.5063 3.14089
HEad  30.9368 -1.00169 1.50548
LeftShoulder1  0 -2.42657e-020 -4.95415e-022
LeftArm  -17.4325 22.3343 -83.345
LeftForeArm  -148.336 -45.5432 -9.80759
LeftHand  10.1681 -25.9603 -42.5895
RightShoulder  0 2.42657e-020 1.07489e-018
RightArm  -25.9597 -37.8003 86.8818
RightForeArm  -164.832 68.4967 152.962
RightHand  -6.48826 15.0292 -46.1532
LeftUpLeg  -6.18958 9.62017 -9.57606
LeftLeg  29.9395 -11.9896 -5.85474
LeftFoot  5.03667 0.050701 -1.15275
LeftToes  -17.8959 1.18758e-006 1.19596e-007
178
root  -24.5007 33.8156 -3.93981 -165.67 -57.963 172.338
RightUpLeg  -27.129 0.920293 5.71395
RightLeg  15.5506 -8.50503 -1.77783
RightFoot  -4.28948 0.00922158 0.623885
RightToes  -29.6228 -0.141332 -0.249336
Spine  5.73245 -5.44314 2.27436
Spine1  11.1961 -10.8953 3.18255
HEad  31.2631 -2.15325 1.49925
LeftShoulder1  0 -2.42657e-020 -4.95415e-022
LeftArm  -13.2198 21.6865 -82.3103
LeftForeArm  -147.225 -46.9302 -10.3163
LeftHand  9.99999 -26.0393 -41.8291
RightShoulder  0 2.42657e-020 1.07489e-018
RightArm  -22.9596 -35.6014 86.5512
RightForeArm  -152.99 68.0551 153.673
RightHand  -7.55831 15.7996 -50.5606
LeftUpLeg  -7.59513 9.21304 -9.27303
LeftLeg  38.9188 -13.7805 -9.55629
LeftFoot  9.08056 0.210766 -2.65372
LeftToes  -32.1768 1.18758e-006 1.19596e-007
179
root  -26.2788 33.3074 -4.74862 -167.212 -58.2835 172.001
RightUpLeg  -25.5398 3.8483 5.69317
RightLeg  21.333 -10.6207 -3.35497
RightFoot  -5.79397 0.0373016 1.11479
RightToes  -12.765 -0.0449014 -0.116261
Spine  5.9675 -4.99169 2.36266
Spine1  11.6255 -9.96951 3.24733
HEad  32.5954 -3.97414 1.81953
LeftShoulder1  0 -2.42657e-020 -4.95415e-022
LeftArm  -8.35293 20.1867 -80.7674
LeftForeArm  -146.643 -47.8904 -10.6844
LeftHand  9.77262 -25.844 -41.2511
RightShoulder  0 2.42657e-020 1.07489e-018
RightArm  -19.2252 -32.5894 85.1049
RightForeArm  -149.521 70.1625 150.399
RightHand  -8.26488 17.0992 -50.9834
LeftUpLeg  -9.32463 8.52212 -7.44202
LeftLeg  50.6622 -15.8956 -16.3643
LeftFoot  12.5829 0.565211 -5.12326
LeftToes  -38.8044 1.18758e-006 1.19596e-007
180
root  -27.9279 32.4632 -5.56189 -169.749 -58.7228 171.903
RightUpLeg  -27.2302 4.69546 5.83075
RightLeg  34.1903 -9.17136 -5.37517
RightFoot  -5.97834 0.0381227 1.10773
RightToes  -3.82595 -0.0107217 -0.0358564
Spine  6.43156 -4.39219 2.46063
Spine1  12.4908 -8.74539 3.27572
HEad  33.5537 -5.93674 2.27337
LeftShoulder1  0 -2.42657e-020 -4.95415e-022
LeftArm  -4.44068 17.5073 -79.4443
LeftForeArm  -145.881 -48.258 -10.8295
LeftHand  9.63591 -25.8854 -40.6617
RightShoulder  0 2.42657e-020 1.07489e-018
RightArm  -17.1591 -28.4153 83.3517
RightForeArm  -157.41 75.1661 137.897
RightHand  -8.86826 18.5621 -50.416
LeftUpLeg  -11.8207 6.78198 -5.16627
LeftLeg  62.3662 -12.1723 -19.1259
LeftFoot  9.67109 0.328815 -3.88537
LeftToes  -40.9947 1.18758e-006 1.19596e-007
181
root  -29.5766 31.7104 -6.36182 -172.81 -59.8995 172.604
RightUpLeg  -26.7815 1.10521 6.74501
RightLeg  43.6347 -6.76951 -5.66573
RightFoot  -12.6714 0.175719 1.96016
RightToes  -0.0765393 -0.00019092 -0.000724083
Spine  7.09076 -3.8992 2.65504
Spine1  13.7335 -7.78418 3.57103
HEad  33.4046 -8.9943 4.66458
LeftShoulder1  0 -2.42657e-020 -4.95415e-022
LeftArm  -1.24464 13.2161 -78.9322
LeftForeArm  -145.483 -46.4558 -10.1409
LeftHand  9.70866 -25.4223 -41.6434
RightShoulder  0 2.42657e-020 1.07489e-018
RightArm  -18.0838 -21.6116 81.8089
RightForeArm  139.988 79.4475 71.433
RightHand  -8.98119 18.5275 -51.0671
LeftUpLeg  -15.1612 3.26192 -2.83114
LeftLeg  70.8566 -6.45005 -14.9603
LeftFoot  4.12886 0.0396924 -1.10111
LeftToes  -35.4227 1.18758e-006 1.19596e-007
182
root  -31.0155 31.1311 -7.1989 -174.18 -60.745 172.826
RightUpLeg  -24.8904 -0.759721 7.18842
RightLeg  48.1505 -5.73562 -5.64056
RightFoot  -18.6091 0.366218 2.61262
RightToes  -0.0302796 -7.54025e-005 -0.000286485
Spine  7.25291 -3.4601 2.64975
Spine1  14.0062 -6.92879 3.70622
HEad  33.8745 -11.861 6.9543
LeftShoulder1  0 -2.42657e-020 -4.95415e-022
LeftArm  1.13895 9.86706 -78.1958
LeftForeArm  -144.698 -44.6111 -9.48328
LeftHand  9.82662 -25.1521 -42.5272
RightShoulder  0 2.42657e-020 1.07489e-018
RightArm  -21.1162 -13.2027 81.3754
RightForeArm  90.1526 63.7728 20.8762
RightHand  -8.71662 19.6955 -47.0511
LeftUpLeg  -20.71 0.462819 -0.588423
LeftLeg  76.9817 -2.78419 -9.21943
LeftFoot  1.1725 0.00120692 -0.117961
LeftToes  -27.7331 1.18758e-006 1.19596e-007
183
root  -32.4303 30.8771 -8.01422 -174.981 -60.3515 173.142
RightUpLeg  -22.2754 0.408929 7.56161
RightLeg  50.024 -6.1937 -6.4931
RightFoot  -22.2299 0.603991 3.45126
RightToes  0.956733 0.00224105 0.00907203
Spine  7.15496 -2.59818 2.58803
Spine1  13.7981 -5.08631 3.59899
HEad  35.3485 -14.8704 8.72593
LeftShoulder1  0 -2.42657e-020 -4.95415e-022
LeftArm  2.15522 8.04505 -77.6755
LeftForeArm  -144.328 -43.746 -9.18951
LeftHand  9.70775 -24.8438 -42.5467
RightShoulder  0 2.42657e-020 1.07489e-018
RightArm  -25.6034 -3.5559 80.5653
RightForeArm  76.9992 38.7451 8.03618
RightHand  -7.71094 21.1765 -39.2908
LeftUpLeg  -25.7077 -0.198472 1.36241
LeftLeg  78.1125 -1.41818 -5.10077
LeftFoot  -3.83356 0.0145852 0.435803
LeftToes  -18.5734 1.18758e-006 1.19596e-007
184
root  -33.9102 30.905 -8.89754 -174.24 -59.8641 172.281
RightUpLeg  -18.6943 1.3098 7.31328
RightLeg  49.323 -6.62078 -6.76432
RightFoot  -24.6526 0.772178 3.91032
RightToes  1.11287 0.00266682 0.0105561
Spine  7.48523 -0.974315 2.51381
Spine1  14.2356 -1.05156 2.0465
HEad  37.0792 -18.7826 11.1314
LeftShoulder1  0 -2.42657e-020 -4.95415e-022
LeftArm  2.64949 6.54245 -76.7858
LeftForeArm  -144.478 -44.7906 -9.54565
LeftHand  9.84695 -24.8317 -43.1196
RightShoulder  0 2.42657e-020 1.07489e-018
RightArm  -36.0704 3.33335 79.4905
RightForeArm  74.1279 23.796 4.3706
RightHand  -4.73228 22.3261 -23.2891
LeftUpLeg  -29.5729 0.285935 2.03189
LeftLeg  74.2452 -0.715424 -2.04617
LeftFoot  -6.93584 0.0254392 0.419773
LeftToes  -12.0897 1.18758e-006 1.19596e-007
185
root  -35.441 31.3773 -9.63049 -171.234 -59.9328 169.358
RightUpLeg  -14.1157 0.342486 5.30251
RightLeg  45.3253 -6.43936 -5.72524
RightFoot  -24.587 0.673341 3.46684
RightToes  -1.81238 -0.00478036 -0.0170745
Spine  7.12006 -0.155891 2.03199
Spine1  13.33 0.940346 1.04387
HEad  38.7336 -24.0032 13.7155
LeftShoulder1  0 -2.42657e-020 -4.95415e-022
LeftArm  2.53455 6.82575 -76.2389
LeftForeArm  -144.463 -44.8341 -9.56079
LeftHand  9.83723 -24.7654 -43.1884
RightShoulder  0 2.42657e-020 1.07489e-018
RightArm  -59.053 6.52478 76.4403
RightForeArm  70.4129 11.1097 1.91378
RightHand  -1.05963 17.7148 -6.42422
LeftUpLeg  -31.7947 -0.225255 0.303591
LeftLeg  64.7832 0.584662 1.04638
LeftFoot  -7.89303 -0.00417794 -0.0605687
LeftToes  -8.76491 1.18758e-006 1.19596e-007
